<?xml version="1.0" standalone="no"?>
<!DOCTYPE svg PUBLIC "-//W3C//DTD SVG 20010904//EN"
 "http://www.w3.org/TR/2001/REC-SVG-20010904/DTD/svg10.dtd">
<svg version="1.0" xmlns="http://www.w3.org/2000/svg"
 width="1000.000000pt" height="1000.000000pt" viewBox="0 0 1000.000000 1000.000000"
 preserveAspectRatio="xMidYMid meet">

<g transform="translate(0.000000,1000.000000) scale(0.100000,-0.100000)"
fill="#000000" stroke="none">
<path d="M7664 7370 c-215 -55 -546 -162 -734 -238 -1240 -499 -2204 -1384
-2948 -2704 l-98 -176 -49 80 c-228 375 -473 626 -730 749 -153 73 -203 84
-385 83 -139 0 -164 -3 -245 -28 -136 -41 -395 -175 -395 -204 0 -4 42 -36 93
-69 610 -400 1043 -1155 1291 -2255 4 -18 13 -28 24 -28 9 0 172 47 361 104
l345 103 86 210 c197 477 461 1034 661 1393 359 646 730 1179 1130 1625 156
173 454 466 609 597 361 305 792 582 1140 734 84 36 104 50 94 66 -10 15 -60
7 -250 -42z"/>
<path d="M222 2328 c-5 -7 -12 -22 -14 -33 -4 -18 -6 -17 -18 8 -14 30 -33 38
-23 10 11 -31 46 -63 69 -63 23 0 54 24 54 41 0 39 -46 64 -68 37z m43 -34 c0
-10 -8 -20 -17 -22 -18 -3 -26 27 -11 42 12 11 28 0 28 -20z"/>
<path d="M226 2221 c-3 -4 -17 -6 -30 -4 -20 4 -26 0 -31 -20 -7 -26 0 -47 14
-47 5 0 6 11 3 25 -3 18 0 25 12 25 9 0 16 -7 16 -15 0 -22 17 -18 23 6 8 29
32 18 32 -14 -1 -30 12 -36 22 -11 14 37 -41 87 -61 55z"/>
<path d="M176 2114 c-19 -18 -20 -28 -6 -55 19 -35 70 -17 70 26 1 18 3 17 18
-7 17 -29 32 -36 32 -17 0 18 -57 69 -79 69 -11 0 -27 -7 -35 -16z m42 -26
c-2 -12 -9 -23 -15 -26 -19 -6 -29 28 -12 39 23 14 31 10 27 -13z"/>
<path d="M160 1991 c0 -22 5 -43 10 -46 6 -4 10 7 10 24 0 17 2 31 4 31 2 0
25 -9 51 -20 53 -23 55 -23 55 -11 0 7 -108 61 -124 61 -3 0 -6 -18 -6 -39z"/>
<path d="M177 1912 c-22 -24 -21 -35 1 -55 36 -33 112 -13 112 28 0 20 -40 45
-71 45 -14 0 -33 -8 -42 -18z m77 -8 c24 -9 19 -33 -8 -40 -31 -7 -66 3 -66
21 0 21 41 32 74 19z"/>
<path d="M160 1791 c0 -22 5 -43 10 -46 6 -4 10 7 10 25 0 28 2 31 23 24 12
-3 34 -13 49 -20 31 -16 38 -17 38 -5 0 7 -108 61 -124 61 -3 0 -6 -18 -6 -39z"/>
<path d="M177 1712 c-22 -24 -21 -35 1 -55 25 -22 75 -21 95 1 23 25 21 38 -5
56 -30 21 -71 20 -91 -2z m77 -8 c24 -9 19 -33 -8 -40 -31 -7 -66 3 -66 21 0
21 41 32 74 19z"/>
<path d="M160 1602 c0 -5 7 -17 15 -28 13 -17 14 -17 15 -1 0 14 9 17 50 17
28 0 50 5 50 10 0 6 -28 10 -65 10 -36 0 -65 -4 -65 -8z"/>
<path d="M226 1541 c-3 -4 -17 -6 -30 -4 -20 4 -26 0 -31 -20 -7 -26 0 -47 14
-47 5 0 6 11 3 25 -3 18 0 25 12 25 9 0 16 -7 16 -15 0 -22 17 -18 23 6 8 29
32 18 32 -14 -1 -30 12 -36 22 -11 14 37 -41 87 -61 55z"/>
<path d="M196 1451 c-4 -6 -12 -9 -17 -6 -5 4 -9 2 -9 -4 0 -5 6 -12 13 -15 9
-5 9 -7 0 -12 -10 -4 -9 -9 2 -20 8 -9 20 -12 26 -8 6 3 14 1 18 -5 5 -8 15
-9 31 -3 19 7 21 10 7 15 -23 9 -22 28 1 20 12 -4 11 0 -7 17 -17 17 -25 20
-31 10 -6 -9 -10 -8 -17 5 -7 12 -12 14 -17 6z m39 -41 c-3 -5 -10 -10 -16
-10 -5 0 -9 5 -9 10 0 6 7 10 16 10 8 0 12 -4 9 -10z"/>
<path d="M140 1280 c0 -6 38 -10 95 -10 57 0 95 4 95 10 0 6 -38 10 -95 10
-57 0 -95 -4 -95 -10z"/>
<path d="M261 1189 c-22 -18 -25 -19 -42 -3 -11 10 -22 14 -27 10 -4 -4 4 -16
17 -27 l23 -19 -46 0 c-34 0 -46 -4 -46 -15 0 -12 15 -15 75 -15 60 0 75 3 75
15 0 9 -9 15 -22 15 l-23 0 24 19 c13 10 22 23 20 29 -2 6 -14 3 -28 -9z"/>
<path d="M190 1081 c0 -27 27 -51 55 -51 24 0 45 25 45 54 0 25 -18 19 -22 -6
-2 -17 -10 -23 -28 -23 -18 0 -26 6 -28 23 -4 27 -22 30 -22 3z"/>
<path d="M206 994 c-19 -18 -20 -28 -6 -55 21 -39 90 -16 90 30 0 16 -30 41
-50 41 -10 0 -26 -7 -34 -16z m59 -29 c0 -22 -31 -33 -47 -17 -17 17 -1 44 24
40 15 -2 23 -10 23 -23z"/>
<path d="M190 900 c0 -5 -7 -10 -15 -10 -8 0 -15 -4 -15 -10 0 -5 6 -10 14
-10 8 0 17 -6 20 -12 5 -10 7 -10 12 0 3 6 21 12 40 12 34 0 56 22 39 38 -4 4
-10 1 -12 -5 -5 -15 -63 -18 -63 -3 0 6 -4 10 -10 10 -5 0 -10 -4 -10 -10z"/>
<path d="M212 810 c-19 -34 -35 -34 -40 -2 -5 30 -22 28 -22 -2 0 -50 54 -61
77 -16 17 34 38 32 38 -3 -1 -32 18 -31 23 2 8 53 -49 69 -76 21z"/>
<path d="M200 675 c-22 -26 3 -65 40 -65 35 0 58 36 45 67 -7 16 -9 15 -13 -7
-6 -40 -22 -48 -22 -12 0 25 -4 32 -19 32 -10 0 -24 -7 -31 -15z m30 -26 c0
-11 -4 -17 -10 -14 -5 3 -10 13 -10 21 0 8 5 14 10 14 6 0 10 -9 10 -21z"/>
<path d="M197 561 c-8 -22 -18 -31 -34 -31 -14 0 -23 -6 -23 -15 0 -23 138
-22 147 2 10 26 -19 68 -50 71 -24 3 -30 -2 -40 -27z m57 3 c28 -11 18 -34
-14 -34 -18 0 -30 5 -30 13 0 25 15 32 44 21z"/>
<path d="M206 464 c-19 -18 -20 -28 -6 -55 21 -39 90 -16 90 30 0 16 -30 41
-50 41 -10 0 -26 -7 -34 -16z m59 -29 c0 -22 -31 -33 -47 -17 -17 17 -1 44 24
40 15 -2 23 -10 23 -23z"/>
<path d="M140 350 c0 -5 11 -10 25 -10 15 0 25 -6 25 -14 0 -45 73 -62 92 -22
20 45 6 56 -72 56 -40 0 -70 -4 -70 -10z m128 -27 c-2 -12 -12 -18 -28 -18
-16 0 -26 6 -28 18 -3 13 3 17 28 17 25 0 31 -4 28 -17z"/>
<path d="M220 246 c-36 -13 -66 -29 -68 -37 -1 -9 20 -21 68 -35 38 -12 70
-17 70 -12 0 6 -9 12 -20 15 -14 4 -20 14 -20 34 0 22 5 29 20 29 11 0 20 7
20 15 0 8 -1 15 -2 14 -2 0 -32 -11 -68 -23z m8 -51 c-7 -7 -48 7 -48 15 0 15
45 16 48 2 2 -8 2 -15 0 -17z"/>
</g>
</svg>
